<svg version="1.1" id="Layer_1" xmlns="http://www.w3.org/2000/svg" xmlns:xlink="http://www.w3.org/1999/xlink" x="0px" y="0px"
	 width="100%" viewBox="0 0 500 500" enable-background="new 0 0 500 500" xml:space="preserve">
<path fill="#FFFFFF" opacity="1.000000" stroke="none" 
	d="
M290.000000,501.000000 
	C193.333359,501.000000 97.166710,501.000000 1.000051,501.000000 
	C1.000034,334.333405 1.000034,167.666794 1.000017,1.000141 
	C167.666565,1.000094 334.333130,1.000094 500.999756,1.000047 
	C500.999847,167.666519 500.999847,334.333038 500.999939,500.999786 
	C430.833344,501.000000 360.666656,501.000000 290.000000,501.000000 
M203.314972,50.969517 
	C190.922958,55.229771 178.139511,58.610985 166.214859,63.920841 
	C134.816406,77.902054 107.912720,98.129166 87.227158,125.786781 
	C51.419456,173.663452 38.821880,227.182449 49.752586,286.069977 
	C53.419956,305.827423 59.933273,324.592194 69.808945,342.689362 
	C68.646156,344.099274 67.556961,345.578247 66.309166,346.908447 
	C54.126278,359.895660 41.903633,372.845581 29.721495,385.833527 
	C24.764738,391.118134 19.879654,396.469971 14.312364,402.494110 
	C26.274616,403.724854 37.274097,404.879150 48.278629,405.983093 
	C62.669033,407.426666 77.062820,408.836670 91.456657,410.245667 
	C94.003433,410.494965 95.576027,411.296387 96.055656,414.327576 
	C98.937218,432.538971 102.041115,450.715393 105.108795,468.897064 
	C106.332748,476.151306 107.654274,483.389069 109.157211,491.915436 
	C110.705589,490.056671 111.396843,489.134674 112.180550,488.299469 
	C129.148224,470.217407 146.113922,452.133453 163.132233,434.099121 
	C164.174179,432.994934 165.647919,432.298218 167.426956,431.866241 
	C171.943146,433.788361 176.358032,436.014038 180.998871,437.562592 
	C188.237823,439.978149 195.630020,441.934448 203.276184,444.797577 
	C204.744781,445.045837 206.232742,445.212250 207.679123,445.554443 
	C236.634796,452.404907 265.667725,452.691040 294.824768,446.839630 
	C385.216156,428.699219 453.518372,348.495605 456.801361,256.370453 
	C458.480865,209.241104 445.862885,166.297119 418.203979,127.983940 
	C394.160706,94.679222 362.663269,70.851402 324.305267,56.495670 
	C294.400940,45.303776 263.272797,41.634792 231.508163,45.257675 
	C222.247574,46.313881 213.167999,48.957146 203.314972,50.969517 
z"/>
<path fill="#55ABF5" opacity="1.000000" stroke="none" 
	d="
M70.004227,342.051392 
	C59.933273,324.592194 53.419956,305.827423 49.752586,286.069977 
	C38.821880,227.182449 51.419456,173.663452 87.227158,125.786781 
	C107.912720,98.129166 134.816406,77.902054 166.214859,63.920841 
	C178.139511,58.610985 190.922958,55.229771 203.999939,51.008060 
	C206.499023,50.959862 208.341019,51.046684 210.123184,50.760704 
	C244.564590,45.233986 278.374420,46.980267 311.515503,58.701069 
	C399.465637,89.805847 454.276031,175.242523 444.745361,267.830841 
	C439.564117,318.165527 418.212616,360.982361 380.621948,394.987549 
	C336.085785,435.275818 283.446075,451.864624 223.726471,446.174408 
	C216.799957,445.514374 209.880188,444.783386 202.957291,444.085327 
	C195.630020,441.934448 188.237823,439.978149 180.998871,437.562592 
	C176.358032,436.014038 171.943146,433.788361 167.194305,431.255707 
	C167.564056,429.681030 168.025375,428.583923 168.789978,427.772614 
	C180.944244,414.876312 193.150497,402.028961 205.299500,389.127747 
	C206.402237,387.956696 207.193924,386.492676 208.584564,385.113831 
	C249.811081,385.042603 290.583405,385.087372 331.354645,384.896088 
	C335.216583,384.877991 339.334381,383.989319 342.883484,382.460419 
	C356.966461,376.393585 360.778137,364.196533 360.824036,350.269836 
	C360.941956,314.490295 360.996765,278.709290 360.766571,242.930847 
	C360.711395,234.359558 360.577057,225.309280 353.709839,218.756989 
	C349.929901,215.150421 345.312347,212.421799 341.104553,208.800110 
	C341.143036,193.866898 340.991791,179.428070 341.252472,164.996689 
	C341.329865,160.710693 339.860962,159.544998 335.841370,159.813400 
	C331.382568,160.111115 326.886414,159.849045 322.282227,159.490982 
	C311.442200,137.917358 300.625671,116.733253 290.096588,95.407219 
	C288.016205,91.193565 286.204498,90.282585 281.798004,92.521164 
	C233.007874,117.307503 184.137024,141.935471 135.221176,166.473038 
	C131.261459,168.459335 130.207718,170.156021 132.469055,174.409637 
	C138.317123,185.409927 143.640045,196.689377 148.754013,207.913132 
	C133.974182,209.775452 126.043297,218.700378 125.986961,233.005600 
	C125.947670,242.981415 125.806473,252.956818 125.296066,262.927094 
	C112.109390,263.269562 103.026917,272.324127 102.819466,284.981415 
	C102.694176,292.625671 102.653763,300.271301 102.338226,308.131348 
	C91.402245,319.581390 80.703232,330.816376 70.004227,342.051392 
z"/>
<path fill="#567BCB" opacity="1.000000" stroke="none" 
	d="
M69.906586,342.370361 
	C80.703232,330.816376 91.402245,319.581390 102.455872,308.547119 
	C103.564468,320.796478 111.987801,329.214325 124.088348,330.458923 
	C124.067413,341.234894 123.981384,351.541656 123.992226,361.848328 
	C124.005234,374.220123 133.665161,383.886444 146.068909,384.024872 
	C151.055710,384.080505 156.042694,384.120728 161.347534,384.429504 
	C163.467224,384.794708 165.268494,384.978943 167.070755,384.989166 
	C180.757080,385.066833 194.443604,385.110504 208.130066,385.164734 
	C207.193924,386.492676 206.402237,387.956696 205.299500,389.127747 
	C193.150497,402.028961 180.944244,414.876312 168.789978,427.772614 
	C168.025375,428.583923 167.564056,429.681030 166.941193,431.028534 
	C165.647919,432.298218 164.174179,432.994934 163.132233,434.099121 
	C146.113922,452.133453 129.148224,470.217407 112.180550,488.299469 
	C111.396843,489.134674 110.705589,490.056671 109.157211,491.915436 
	C107.654274,483.389069 106.332748,476.151306 105.108795,468.897064 
	C102.041115,450.715393 98.937218,432.538971 96.055656,414.327576 
	C95.576027,411.296387 94.003433,410.494965 91.456657,410.245667 
	C77.062820,408.836670 62.669033,407.426666 48.278629,405.983093 
	C37.274097,404.879150 26.274616,403.724854 14.312364,402.494110 
	C19.879654,396.469971 24.764738,391.118134 29.721495,385.833527 
	C41.903633,372.845581 54.126278,359.895660 66.309166,346.908447 
	C67.556961,345.578247 68.646156,344.099274 69.906586,342.370361 
z"/>
<path fill="#060708" opacity="1.000000" stroke="none" 
	d="
M203.116730,444.441437 
	C209.880188,444.783386 216.799957,445.514374 223.726471,446.174408 
	C283.446075,451.864624 336.085785,435.275818 380.621948,394.987549 
	C418.212616,360.982361 439.564117,318.165527 444.745361,267.830841 
	C454.276031,175.242523 399.465637,89.805847 311.515503,58.701069 
	C278.374420,46.980267 244.564590,45.233986 210.123184,50.760704 
	C208.341019,51.046684 206.499023,50.959862 204.345184,50.959770 
	C213.167999,48.957146 222.247574,46.313881 231.508163,45.257675 
	C263.272797,41.634792 294.400940,45.303776 324.305267,56.495670 
	C362.663269,70.851402 394.160706,94.679222 418.203979,127.983940 
	C445.862885,166.297119 458.480865,209.241104 456.801361,256.370453 
	C453.518372,348.495605 385.216156,428.699219 294.824768,446.839630 
	C265.667725,452.691040 236.634796,452.404907 207.679123,445.554443 
	C206.232742,445.212250 204.744781,445.045837 203.116730,444.441437 
z"/>
<path fill="#256FA2" opacity="1.000000" stroke="none" 
	d="
M208.584564,385.113831 
	C194.443604,385.110504 180.757080,385.066833 167.070755,384.989166 
	C165.268494,384.978943 163.467224,384.794708 161.182617,384.115295 
	C159.989304,383.122162 159.300659,382.661163 158.565186,382.294037 
	C147.436584,376.738983 141.817352,367.814667 141.908905,355.312012 
	C141.970688,346.874329 141.914948,338.435730 142.385956,329.999725 
	C158.520599,330.002167 174.181488,330.075775 189.841324,329.978394 
	C201.366241,329.906738 211.667435,319.913635 211.954208,308.485901 
	C212.154739,300.494141 212.156784,292.489075 211.953629,284.497467 
	C211.661285,272.997589 201.319153,263.020355 189.896515,263.002899 
	C173.902924,262.978455 157.909271,263.000397 141.918274,262.533569 
	C141.931091,252.768799 141.859970,243.471695 142.009995,234.178146 
	C142.046417,231.921616 142.553619,229.589172 143.284912,227.441696 
	C146.587326,217.743881 154.003601,212.227509 163.356293,208.322128 
	C164.103424,208.094772 164.539368,207.992386 165.428070,207.929932 
	C168.605652,207.900040 171.330505,207.830185 174.514481,207.832581 
	C193.969528,207.862701 212.965454,207.820572 232.429092,207.846375 
	C246.933899,207.872543 260.970978,207.830765 275.472260,207.851013 
	C294.625641,207.880371 313.314789,207.847702 332.423279,207.878403 
	C335.585846,208.393631 338.329132,208.845490 341.072418,209.297363 
	C345.312347,212.421799 349.929901,215.150421 353.709839,218.756989 
	C360.577057,225.309280 360.711395,234.359558 360.766571,242.930847 
	C360.996765,278.709290 360.941956,314.490295 360.824036,350.269836 
	C360.778137,364.196533 356.966461,376.393585 342.883484,382.460419 
	C339.334381,383.989319 335.216583,384.877991 331.354645,384.896088 
	C290.583405,385.087372 249.811081,385.042603 208.584564,385.113831 
M273.499298,264.317749 
	C271.332977,264.317749 269.166687,264.316864 267.000366,264.317871 
	C260.500977,264.320892 253.998718,264.207916 247.503098,264.366333 
	C242.596588,264.485992 239.129486,267.760284 239.122787,271.859894 
	C239.115967,276.034393 242.521286,279.043457 247.537781,279.158142 
	C251.202240,279.241943 254.870071,279.179474 258.536407,279.179688 
	C269.983551,279.180420 281.430725,279.179962 292.916351,279.179962 
	C292.123779,287.732605 284.183380,296.470490 274.852081,297.764252 
	C266.501953,298.921967 257.945740,298.727325 249.476669,298.837280 
	C245.205231,298.892761 241.542404,299.337158 239.740479,303.960754 
	C237.995682,308.437744 240.560379,311.221405 243.341263,313.977448 
	C256.951538,327.466095 270.824188,340.703644 284.054901,354.554535 
	C288.861694,359.586670 293.731812,362.277893 300.540680,361.142395 
	C302.202545,360.865295 305.061035,360.474976 305.194061,359.741943 
	C305.536743,357.853638 305.252136,355.306580 304.147491,353.816345 
	C301.989838,350.905548 299.031067,348.602386 296.528687,345.930878 
	C285.651398,334.318420 274.819000,322.663940 263.970276,311.024750 
	C266.112305,311.839478 269.560272,312.022034 272.983521,311.808502 
	C289.599457,310.771973 302.155121,303.079437 307.982880,287.357269 
	C310.451294,280.698029 313.145233,278.292664 320.017670,279.019684 
	C324.981995,279.544830 327.603729,276.464386 327.612366,271.870972 
	C327.620911,267.348083 325.063110,264.684265 320.082703,264.376373 
	C316.954376,264.182983 313.804352,264.340332 311.257324,264.340332 
	C308.163025,258.229095 305.366913,252.706818 302.426178,246.898880 
	C308.050934,246.898880 313.520508,246.953918 318.988525,246.883881 
	C324.818604,246.809189 327.585175,244.386642 327.616638,239.506607 
	C327.648560,234.557556 324.913269,232.079987 319.126129,232.072006 
	C295.461670,232.039398 271.797089,232.043640 248.132599,232.069916 
	C242.717377,232.075912 239.229111,234.936890 239.116180,239.285080 
	C239.000076,243.756714 242.669037,246.836517 248.341156,246.885605 
	C255.506638,246.947617 262.676880,246.767807 269.837952,246.958359 
	C280.573151,247.243973 290.000641,254.448944 292.517059,264.317993 
	C286.450348,264.317993 280.474609,264.317993 273.499298,264.317749 
z"/>
<path fill="#194C7D" opacity="1.000000" stroke="none" 
	d="
M141.915634,263.002502 
	C157.909271,263.000397 173.902924,262.978455 189.896515,263.002899 
	C201.319153,263.020355 211.661285,272.997589 211.953629,284.497467 
	C212.156784,292.489075 212.154739,300.494141 211.954208,308.485901 
	C211.667435,319.913635 201.366241,329.906738 189.841324,329.978394 
	C174.181488,330.075775 158.520599,330.002167 141.927765,330.005402 
	C135.352310,330.002502 129.709244,329.996094 124.066162,329.989685 
	C111.987801,329.214325 103.564468,320.796478 102.692841,308.332092 
	C102.653763,300.271301 102.694176,292.625671 102.819466,284.981415 
	C103.026917,272.324127 112.109390,263.269562 125.786530,262.948547 
	C131.766357,262.984344 136.840988,262.993439 141.915634,263.002502 
M160.348007,277.189972 
	C147.904022,286.682129 148.926300,308.372925 161.269516,316.763824 
	C164.178940,318.155273 167.088348,319.546722 170.719177,321.322479 
	C173.810822,321.493073 176.902481,321.663696 180.789627,321.972260 
	C184.188110,320.906158 187.586578,319.840088 191.632874,318.645264 
	C208.848709,308.878601 208.304138,283.008240 190.395401,273.804565 
	C186.928452,272.924866 183.461487,272.045166 179.127441,271.032104 
	C175.605820,271.592682 172.084183,272.153259 167.876938,272.764038 
	C165.582504,274.169830 163.288071,275.575653 160.348007,277.189972 
z"/>
<path fill="#63A438" opacity="1.000000" stroke="none" 
	d="
M149.172668,207.857361 
	C143.640045,196.689377 138.317123,185.409927 132.469055,174.409637 
	C130.207718,170.156021 131.261459,168.459335 135.221176,166.473038 
	C184.137024,141.935471 233.007874,117.307503 281.798004,92.521164 
	C286.204498,90.282585 288.016205,91.193565 290.096588,95.407219 
	C300.625671,116.733253 311.442200,137.917358 321.780701,159.543610 
	C312.265564,159.957123 303.127716,159.978256 293.991302,159.587189 
	C293.991730,151.835892 297.986847,146.854080 304.108398,142.991470 
	C299.586945,134.300919 295.229065,125.924828 290.782776,117.378746 
	C279.967316,121.251564 271.578156,118.406609 265.417084,109.041504 
	C264.310730,109.496727 263.372589,109.811287 262.498535,110.252686 
	C231.307419,126.004814 200.121155,141.766556 168.943375,157.545105 
	C168.219406,157.911484 167.600525,158.485504 166.646698,158.984833 
	C165.903229,159.306335 165.445648,159.605698 164.622330,159.974579 
	C159.864853,161.232178 158.598862,163.344360 159.625214,168.336502 
	C161.044907,175.241699 158.843231,181.794571 152.652237,186.121552 
	C150.214737,187.825134 150.065567,189.348877 151.373047,191.867508 
	C154.103500,197.127304 156.512360,202.554062 158.601486,207.972214 
	C155.157318,207.973923 152.164993,207.915649 149.172668,207.857361 
z"/>
<path fill="#70B747" opacity="1.000000" stroke="none" 
	d="
M293.989868,159.999390 
	C303.127716,159.978256 312.265564,159.957123 321.904968,159.883362 
	C326.886414,159.849045 331.382568,160.111115 335.841370,159.813400 
	C339.860962,159.544998 341.329865,160.710693 341.252472,164.996689 
	C340.991791,179.428070 341.143036,193.866898 341.104553,208.800125 
	C338.329132,208.845490 335.585846,208.393631 332.428070,207.425354 
	C332.016663,201.242615 332.176727,195.568970 331.912903,189.915085 
	C331.846619,188.494049 330.697083,186.234558 329.576782,185.891739 
	C320.265289,183.042282 314.355286,177.393280 313.598907,167.369232 
	C273.244110,167.369232 233.342514,167.369232 193.473740,167.369232 
	C191.802002,177.188034 186.467819,183.219849 177.170044,185.936234 
	C175.859009,186.319260 174.233948,188.399689 174.161057,189.769318 
	C173.842651,195.751251 174.043198,201.760818 174.055344,207.760345 
	C171.330505,207.830185 168.605652,207.900040 165.437744,207.470718 
	C164.992493,191.282730 164.990280,175.593903 164.988083,159.905075 
	C165.445648,159.605698 165.903229,159.306335 166.948822,159.285858 
	C180.036087,159.708374 192.535339,159.851990 205.499695,159.994598 
	C219.988510,159.994675 234.012207,159.995773 248.502319,159.995422 
	C263.975769,159.995773 278.982819,159.997589 293.989868,159.999390 
z"/>
<path fill="#0B3966" opacity="1.000000" stroke="none" 
	d="
M148.754013,207.913132 
	C152.164993,207.915649 155.157318,207.973923 158.993866,208.056183 
	C160.907104,208.202469 161.976105,208.324783 163.045120,208.447083 
	C154.003601,212.227509 146.587326,217.743881 143.284912,227.441696 
	C142.553619,229.589172 142.046417,231.921616 142.009995,234.178146 
	C141.859970,243.471695 141.931091,252.768799 141.918274,262.533569 
	C136.840988,262.993439 131.766357,262.984344 126.201248,262.953857 
	C125.806473,252.956818 125.947670,242.981415 125.986961,233.005600 
	C126.043297,218.700378 133.974182,209.775452 148.754013,207.913132 
z"/>
<path fill="#0A3866" opacity="1.000000" stroke="none" 
	d="
M124.088348,330.458923 
	C129.709244,329.996094 135.352310,330.002502 141.453583,330.003235 
	C141.914948,338.435730 141.970688,346.874329 141.908905,355.312012 
	C141.817352,367.814667 147.436584,376.738983 158.565186,382.294037 
	C159.300659,382.661163 159.989304,383.122162 160.864655,383.853760 
	C156.042694,384.120728 151.055710,384.080505 146.068909,384.024872 
	C133.665161,383.886444 124.005234,374.220123 123.992226,361.848328 
	C123.981384,351.541656 124.067413,341.234894 124.088348,330.458923 
z"/>
<path fill="#FAFCFD" opacity="1.000000" stroke="none" 
	d="
M273.999084,264.317871 
	C280.474609,264.317993 286.450348,264.317993 292.517059,264.317993 
	C290.000641,254.448944 280.573151,247.243973 269.837952,246.958359 
	C262.676880,246.767807 255.506638,246.947617 248.341156,246.885605 
	C242.669037,246.836517 239.000076,243.756714 239.116180,239.285080 
	C239.229111,234.936890 242.717377,232.075912 248.132599,232.069916 
	C271.797089,232.043640 295.461670,232.039398 319.126129,232.072006 
	C324.913269,232.079987 327.648560,234.557556 327.616638,239.506607 
	C327.585175,244.386642 324.818604,246.809189 318.988525,246.883881 
	C313.520508,246.953918 308.050934,246.898880 302.426178,246.898880 
	C305.366913,252.706818 308.163025,258.229095 311.257324,264.340332 
	C313.804352,264.340332 316.954376,264.182983 320.082703,264.376373 
	C325.063110,264.684265 327.620911,267.348083 327.612366,271.870972 
	C327.603729,276.464386 324.981995,279.544830 320.017670,279.019684 
	C313.145233,278.292664 310.451294,280.698029 307.982880,287.357269 
	C302.155121,303.079437 289.599457,310.771973 272.983521,311.808502 
	C269.560272,312.022034 266.112305,311.839478 263.970276,311.024750 
	C274.819000,322.663940 285.651398,334.318420 296.528687,345.930878 
	C299.031067,348.602386 301.989838,350.905548 304.147491,353.816345 
	C305.252136,355.306580 305.536743,357.853638 305.194061,359.741943 
	C305.061035,360.474976 302.202545,360.865295 300.540680,361.142395 
	C293.731812,362.277893 288.861694,359.586670 284.054901,354.554535 
	C270.824188,340.703644 256.951538,327.466095 243.341263,313.977448 
	C240.560379,311.221405 237.995682,308.437744 239.740479,303.960754 
	C241.542404,299.337158 245.205231,298.892761 249.476669,298.837280 
	C257.945740,298.727325 266.501953,298.921967 274.852081,297.764252 
	C284.183380,296.470490 292.123779,287.732605 292.916351,279.179962 
	C281.430725,279.179962 269.983551,279.180420 258.536407,279.179688 
	C254.870071,279.179474 251.202240,279.241943 247.537781,279.158142 
	C242.521286,279.043457 239.115967,276.034393 239.122787,271.859894 
	C239.129486,267.760284 242.596588,264.485992 247.503098,264.366333 
	C253.998718,264.207916 260.500977,264.320892 267.000366,264.317871 
	C269.166687,264.316864 271.332977,264.317749 273.999084,264.317871 
z"/>
<path fill="#8DD361" opacity="1.000000" stroke="none" 
	d="
M174.514481,207.832581 
	C174.043198,201.760818 173.842651,195.751251 174.161057,189.769318 
	C174.233948,188.399689 175.859009,186.319260 177.170044,185.936234 
	C186.467819,183.219849 191.802002,177.188034 193.473740,167.369232 
	C233.342514,167.369232 273.244110,167.369232 313.598907,167.369232 
	C314.355286,177.393280 320.265289,183.042282 329.576782,185.891739 
	C330.697083,186.234558 331.846619,188.494049 331.912903,189.915085 
	C332.176727,195.568970 332.016663,201.242615 332.008789,207.362000 
	C313.314789,207.847702 294.625641,207.880371 275.472107,207.445190 
	C277.342773,198.961472 275.445435,191.782425 270.088379,185.683426 
	C262.898376,177.497635 251.699356,175.685776 242.506516,180.784912 
	C233.046555,186.032242 228.962952,196.485443 231.961365,207.778442 
	C212.965454,207.820572 193.969528,207.862701 174.514481,207.832581 
z"/>
<path fill="#70B748" opacity="1.000000" stroke="none" 
	d="
M232.429092,207.846375 
	C228.962952,196.485443 233.046555,186.032242 242.506516,180.784912 
	C251.699356,175.685776 262.898376,177.497635 270.088379,185.683426 
	C275.445435,191.782425 277.342773,198.961472 275.007904,207.383163 
	C260.970978,207.830765 246.933899,207.872543 232.429092,207.846375 
z"/>
<path fill="#80CB4A" opacity="1.000000" stroke="none" 
	d="
M163.356293,208.322128 
	C161.976105,208.324783 160.907104,208.202469 159.445709,207.996201 
	C156.512360,202.554062 154.103500,197.127304 151.373047,191.867508 
	C150.065567,189.348877 150.214737,187.825134 152.652237,186.121552 
	C158.843231,181.794571 161.044907,175.241699 159.625214,168.336502 
	C158.598862,163.344360 159.864853,161.232178 164.622330,159.974579 
	C164.990280,175.593903 164.992493,191.282730 164.985016,207.430771 
	C164.539368,207.992386 164.103424,208.094772 163.356293,208.322128 
z"/>
<path fill="#FEBC54" opacity="1.000000" stroke="none" 
	d="
M179.994125,321.834290 
	C176.902481,321.663696 173.810822,321.493073 170.359329,320.666016 
	C169.999817,306.064484 170.052521,292.118988 169.936783,278.174866 
	C169.921646,276.350861 169.041870,274.533997 168.562561,272.713837 
	C172.084183,272.153259 175.605820,271.592682 179.562775,271.556366 
	C179.996780,288.665192 179.995453,305.249725 179.994125,321.834290 
z"/>
<path fill="#FEAE52" opacity="1.000000" stroke="none" 
	d="
M180.391876,321.903259 
	C179.995453,305.249725 179.996780,288.665192 179.996323,271.623047 
	C183.461487,272.045166 186.928452,272.924866 190.623230,274.434875 
	C190.567581,282.351654 190.045425,289.638855 190.067734,296.924408 
	C190.090027,304.208466 190.656906,311.490875 190.985046,318.773987 
	C187.586578,319.840088 184.188110,320.906158 180.391876,321.903259 
z"/>
<path fill="#FC9D50" opacity="1.000000" stroke="none" 
	d="
M191.308960,318.709625 
	C190.656906,311.490875 190.090027,304.208466 190.067734,296.924408 
	C190.045425,289.638855 190.567581,282.351654 190.915649,274.671082 
	C208.304138,283.008240 208.848709,308.878601 191.308960,318.709625 
z"/>
<path fill="#FEC956" opacity="1.000000" stroke="none" 
	d="
M168.219757,272.738953 
	C169.041870,274.533997 169.921646,276.350861 169.936783,278.174866 
	C170.052521,292.118988 169.999817,306.064484 169.998627,320.473877 
	C167.088348,319.546722 164.178940,318.155273 161.166260,316.042603 
	C161.039871,302.541382 161.016739,289.761414 160.993622,276.981445 
	C163.288071,275.575653 165.582504,274.169830 168.219757,272.738953 
z"/>
<path fill="#FCD458" opacity="1.000000" stroke="none" 
	d="
M160.670807,277.085693 
	C161.016739,289.761414 161.039871,302.541382 160.999298,315.748352 
	C148.926300,308.372925 147.904022,286.682129 160.670807,277.085693 
z"/>
<path fill="#80CB4A" opacity="1.000000" stroke="none" 
	d="
M205.034576,159.995605 
	C192.535339,159.851990 180.036087,159.708374 167.234741,159.263718 
	C167.600525,158.485504 168.219406,157.911484 168.943375,157.545105 
	C200.121155,141.766556 231.307419,126.004814 262.498535,110.252686 
	C263.372589,109.811287 264.310730,109.496727 265.417084,109.041504 
	C271.578156,118.406609 279.967316,121.251564 290.782776,117.378746 
	C295.229065,125.924828 299.586945,134.300919 304.108398,142.991470 
	C297.986847,146.854080 293.991730,151.835892 293.991302,159.587189 
	C278.982819,159.997589 263.975769,159.995773 248.489166,159.622375 
	C245.441254,150.599976 237.493530,144.097397 229.346497,143.981155 
	C216.425232,143.796829 208.652832,148.916550 205.034576,159.995605 
z"/>
<path fill="#63A435" opacity="1.000000" stroke="none" 
	d="
M205.499695,159.994598 
	C208.652832,148.916550 216.425232,143.796829 229.346497,143.981155 
	C237.493530,144.097397 245.441254,150.599976 248.022751,159.623810 
	C234.012207,159.995773 219.988510,159.994675 205.499695,159.994598 
z"/>
</svg>